<?xml version="1.0" encoding="UTF-8" standalone="no"?>
<!-- Created with Inkscape (http://www.inkscape.org/) -->

<svg
   xmlns:dc="http://purl.org/dc/elements/1.1/"
   xmlns:cc="http://creativecommons.org/ns#"
   xmlns:rdf="http://www.w3.org/1999/02/22-rdf-syntax-ns#"
   xmlns:svg="http://www.w3.org/2000/svg"
   xmlns="http://www.w3.org/2000/svg"
   xmlns:sodipodi="http://sodipodi.sourceforge.net/DTD/sodipodi-0.dtd"
   xmlns:inkscape="http://www.inkscape.org/namespaces/inkscape"
   width="89.567482mm"
   height="46.278625mm"
   viewBox="0 0 317.3651 163.97938"
   id="svg2"
   version="1.1"
   inkscape:version="0.91 r"
   sodipodi:docname="helios_logo.svg">
  <defs
     id="defs4">
    <filter
       inkscape:collect="always"
       style="color-interpolation-filters:sRGB"
       id="filter5036"
       x="-0.017991588"
       width="1.0359832"
       y="-0.036033694"
       height="1.0720674">
      <feGaussianBlur
         inkscape:collect="always"
         stdDeviation="2.2964909"
         id="feGaussianBlur5038" />
    </filter>
  </defs>
  <sodipodi:namedview
     id="base"
     pagecolor="#ffffff"
     bordercolor="#666666"
     borderopacity="1.0"
     inkscape:pageopacity="0.0"
     inkscape:pageshadow="2"
     inkscape:zoom="1.4"
     inkscape:cx="81.519823"
     inkscape:cy="124.18214"
     inkscape:document-units="px"
     inkscape:current-layer="layer1"
     showgrid="false"
     inkscape:window-width="1920"
     inkscape:window-height="1023"
     inkscape:window-x="0"
     inkscape:window-y="30"
     inkscape:window-maximized="1"
     showguides="true"
     inkscape:guide-bbox="true"
     fit-margin-top="0"
     fit-margin-left="0"
     fit-margin-right="0"
     fit-margin-bottom="0" />
  <metadata
     id="metadata7">
    <rdf:RDF>
      <cc:Work
         rdf:about="">
        <dc:format>image/svg+xml</dc:format>
        <dc:type
           rdf:resource="http://purl.org/dc/dcmitype/StillImage" />
        <dc:title></dc:title>
      </cc:Work>
    </rdf:RDF>
  </metadata>
  <g
     inkscape:label="Capa 1"
     inkscape:groupmode="layer"
     id="layer1"
     transform="translate(-151.26753,-345.52614)">
    <g
       id="g4982"
       style="opacity:0.70700001;fill:#000000;fill-opacity:1;filter:url(#filter5036)"
       transform="translate(0,2)">
      <g
         style="fill:#000000;fill-opacity:1;stroke:#1a1a1a"
         id="g4823">
        <g
           id="g4825"
           style="font-style:normal;font-variant:normal;font-weight:300;font-stretch:condensed;font-size:55.65516281px;line-height:125%;font-family:'Open Sans';-inkscape-font-specification:'Open Sans, Light Condensed';text-align:start;letter-spacing:0px;word-spacing:0px;writing-mode:lr-tb;text-anchor:start;fill:#000000;fill-opacity:1;stroke:#1a1a1a;stroke-width:1.10223496px;stroke-linecap:butt;stroke-linejoin:miter;stroke-opacity:1">
          <path
             id="path4827"
             style="fill:#000000;fill-opacity:1;stroke:#1a1a1a;stroke-width:1.10223496px"
             d="m 176.29864,461.72004 2.74471,0 -9.40268,39.7304 -2.96211,0 -9.34833,-39.7304 2.77189,0 6.46774,27.93629 q 0.76091,3.20669 1.00549,4.72851 0.24457,1.49465 0.48915,3.77738 0.21741,-1.57617 0.46198,-3.09799 0.24458,-1.52182 0.46199,-2.55449 0.24457,-1.05984 7.31017,-30.7897 z"
             inkscape:connector-curvature="0" />
          <path
             id="path4829"
             style="fill:#000000;fill-opacity:1;stroke:#1a1a1a;stroke-width:1.10223496px"
             d="m 185.59262,501.45044 -2.58166,0 0,-29.48528 2.58166,0 0,29.48528 z m -2.96212,-37.66507 q 0,-1.22289 0.48916,-1.90227 0.51633,-0.67939 1.30442,-0.67939 0.73373,0 1.16854,0.67939 0.4348,0.67938 0.4348,1.90227 0,1.16854 -0.4348,1.8751 -0.43481,0.67939 -1.16854,0.67939 -0.78809,0 -1.30442,-0.67939 -0.48916,-0.70656 -0.48916,-1.8751 z"
             inkscape:connector-curvature="0" />
          <path
             id="path4831"
             style="fill:#000000;fill-opacity:1;stroke:#1a1a1a;stroke-width:1.10223496px"
             d="m 200.64777,501.99395 q -8.58741,0 -8.58741,-15.24539 0,-7.5004 2.14685,-11.41365 2.14685,-3.94043 6.33186,-3.94043 1.9838,0 3.7502,1.14136 1.79358,1.14137 2.85342,3.15235 l 0.2174,0 -0.1087,-3.28822 0,-13.23441 2.58166,0 0,42.28488 -2.11968,0 -0.2174,-4.13066 -0.24458,0 q -1.05984,2.25556 -2.74471,3.47845 -1.68488,1.19572 -3.85891,1.19572 z m 0.16306,-2.25556 q 3.09799,0 4.75569,-2.85341 1.68487,-2.88059 1.68487,-8.45154 l 0,-1.68488 q 0,-6.68514 -1.63052,-9.78313 -1.60335,-3.12517 -4.91875,-3.12517 -3.17951,0 -4.56546,3.34257 -1.38594,3.3154 -1.38594,9.62008 0,6.35904 1.44029,9.64726 1.4403,3.28822 4.61982,3.28822 z"
             inkscape:connector-curvature="0" />
          <path
             id="path4833"
             style="fill:#000000;fill-opacity:1;stroke:#1a1a1a;stroke-width:1.10223496px"
             d="m 226.05675,501.99395 q -4.67417,0 -7.20148,-3.96761 -2.50013,-3.99478 -2.50013,-11.11472 0,-7.55476 2.22838,-11.52236 2.25556,-3.99478 6.46774,-3.99478 3.66867,0 5.78835,3.50562 2.11968,3.47845 2.11968,9.40268 l 0,2.39143 -13.96814,0 q 0.0543,6.44057 1.82075,9.64726 1.7664,3.20669 5.35355,3.20669 2.77189,0 5.8427,-1.82075 l 0,2.50014 q -2.82623,1.7664 -5.9514,1.7664 z m -1.16854,-28.26239 q -5.32638,0 -5.84271,10.62557 l 11.33213,0 q 0,-4.86439 -1.49464,-7.74498 -1.46747,-2.88059 -3.99478,-2.88059 z"
             inkscape:connector-curvature="0" />
          <path
             id="path4835"
             style="fill:#000000;fill-opacity:1;stroke:#1a1a1a;stroke-width:1.10223496px"
             d="m 256.13989,486.63986 q 0,7.44605 -2.36426,11.41366 -2.33708,3.94043 -6.71232,3.94043 -4.32088,0 -6.63079,-3.94043 -2.28273,-3.96761 -2.28273,-11.41366 0,-15.24538 9.02223,-15.24538 4.23935,0 6.60361,3.99478 2.36426,3.99478 2.36426,11.2506 z m -15.29974,0 q 0,6.38621 1.52182,9.64726 1.52182,3.26104 4.75569,3.26104 6.33187,0 6.33187,-12.9083 0,-12.7996 -6.33187,-12.7996 -3.31539,0 -4.81004,3.20669 -1.46747,3.2067 -1.46747,9.59291 z"
             inkscape:connector-curvature="0" />
          <path
             id="path4837"
             style="fill:#000000;fill-opacity:1;stroke:#1a1a1a;stroke-width:1.10223496px"
             d="m 288.77751,491.04227 q 0,4.89157 -2.71754,7.93521 -2.71753,3.01647 -6.90254,3.01647 -4.75569,0 -7.63628,-1.38595 l 0,-2.88059 q 1.41312,0.78809 3.50562,1.25007 2.09251,0.46198 4.13066,0.46198 3.04364,0 5.00027,-2.3099 1.95662,-2.30991 1.95662,-5.86989 0,-3.28822 -1.38594,-5.21767 -1.38594,-1.92945 -5.2992,-3.8589 -3.07081,-1.549 -4.59264,-2.98929 -1.52182,-1.46747 -2.25555,-3.39692 -0.73374,-1.92945 -0.73374,-4.61982 0,-2.93494 1.19572,-5.21767 1.19572,-2.28273 3.34257,-3.5328 2.14685,-1.27724 4.70134,-1.27724 2.30991,0 4.18501,0.51633 1.90227,0.51634 2.98929,1.11419 l -1.03267,2.55449 q -3.01646,-1.549 -6.14163,-1.549 -2.93494,0 -4.78287,2.01098 -1.82075,1.9838 -1.82075,5.27202 0,3.34257 1.3316,5.1905 1.33159,1.84792 5.21767,3.83173 4.02195,1.95662 5.86988,4.59263 1.8751,2.60884 1.8751,6.35904 z"
             inkscape:connector-curvature="0" />
          <path
             id="path4839"
             style="fill:#000000;fill-opacity:1;stroke:#1a1a1a;stroke-width:1.10223496px"
             d="m 311.68635,486.63986 q 0,7.44605 -2.36426,11.41366 -2.33708,3.94043 -6.71231,3.94043 -4.32089,0 -6.63079,-3.94043 -2.28274,-3.96761 -2.28274,-11.41366 0,-15.24538 9.02223,-15.24538 4.23936,0 6.60361,3.99478 2.36426,3.99478 2.36426,11.2506 z m -15.29973,0 q 0,6.38621 1.52182,9.64726 1.52182,3.26104 4.75569,3.26104 6.33186,0 6.33186,-12.9083 0,-12.7996 -6.33186,-12.7996 -3.3154,0 -4.81004,3.20669 -1.46747,3.2067 -1.46747,9.59291 z"
             inkscape:connector-curvature="0" />
          <path
             id="path4841"
             style="fill:#000000;fill-opacity:1;stroke:#1a1a1a;stroke-width:1.10223496px"
             d="m 320.81727,501.45044 -2.58166,0 0,-42.28488 2.58166,0 0,42.28488 z"
             inkscape:connector-curvature="0" />
          <path
             id="path4843"
             style="fill:#000000;fill-opacity:1;stroke:#1a1a1a;stroke-width:1.10223496px"
             d="m 331.14392,471.96516 0,19.24016 q 0,4.37524 1.03266,6.38622 1.05984,2.01097 3.23387,2.01097 3.34257,0 4.89157,-2.69036 1.57617,-2.71753 1.57617,-8.75047 l 0,-16.19652 2.55448,0 0,29.48528 -2.17402,0 -0.32611,-4.13066 -0.2174,0 q -0.95114,2.25556 -2.63601,3.47845 -1.68488,1.19572 -3.66868,1.19572 -3.55997,0 -5.21767,-2.52731 -1.63052,-2.52731 -1.63052,-8.26132 l 0,-19.24016 2.58166,0 z"
             inkscape:connector-curvature="0" />
          <path
             id="path4845"
             style="fill:#000000;fill-opacity:1;stroke:#1a1a1a;stroke-width:1.10223496px"
             d="m 359.9498,501.99395 q -4.42958,0 -6.68514,-3.83173 -2.22838,-3.8589 -2.22838,-11.30496 0,-7.55475 2.25556,-11.49518 2.28273,-3.9676 6.71231,-3.9676 2.74472,0 4.56547,1.00549 l -1.00549,2.28273 q -1.82075,-0.84244 -3.34257,-0.84244 -6.49492,0 -6.49492,12.96265 0,12.85395 6.49492,12.85395 1.92945,0 4.185,-0.86961 l 0,2.17403 q -0.89678,0.48916 -2.2012,0.76091 -1.30442,0.27176 -2.25556,0.27176 z"
             inkscape:connector-curvature="0" />
          <path
             id="path4847"
             style="fill:#000000;fill-opacity:1;stroke:#1a1a1a;stroke-width:1.10223496px"
             d="m 372.23307,501.45044 -2.58166,0 0,-29.48528 2.58166,0 0,29.48528 z m -2.96211,-37.66507 q 0,-1.22289 0.48915,-1.90227 0.51634,-0.67939 1.30442,-0.67939 0.73374,0 1.16854,0.67939 0.43481,0.67938 0.43481,1.90227 0,1.16854 -0.43481,1.8751 -0.4348,0.67939 -1.16854,0.67939 -0.78808,0 -1.30442,-0.67939 -0.48915,-0.70656 -0.48915,-1.8751 z"
             inkscape:connector-curvature="0" />
          <path
             id="path4849"
             style="fill:#000000;fill-opacity:1;stroke:#1a1a1a;stroke-width:1.10223496px"
             d="m 396.69091,486.63986 q 0,7.44605 -2.36425,11.41366 -2.33709,3.94043 -6.71232,3.94043 -4.32089,0 -6.63079,-3.94043 -2.28273,-3.96761 -2.28273,-11.41366 0,-15.24538 9.02222,-15.24538 4.23936,0 6.60362,3.99478 2.36425,3.99478 2.36425,11.2506 z m -15.29973,0 q 0,6.38621 1.52182,9.64726 1.52182,3.26104 4.75569,3.26104 6.33186,0 6.33186,-12.9083 0,-12.7996 -6.33186,-12.7996 -3.3154,0 -4.81004,3.20669 -1.46747,3.2067 -1.46747,9.59291 z"
             inkscape:connector-curvature="0" />
          <path
             id="path4851"
             style="fill:#000000;fill-opacity:1;stroke:#1a1a1a;stroke-width:1.10223496px"
             d="m 416.55611,501.45044 0,-20.32718 q 0,-7.33735 -4.34806,-7.33735 -3.3154,0 -4.8644,2.74471 -1.52182,2.74472 -1.52182,8.7233 l 0,16.19652 -2.58166,0 0,-29.48528 2.17403,0 0.21741,4.10348 0.24457,0 q 0.92397,-2.22838 2.66319,-3.45127 1.73922,-1.22289 3.72303,-1.22289 3.42409,0 5.13614,2.3099 1.71205,2.28274 1.71205,7.36453 l 0,20.38153 -2.55448,0 z"
             inkscape:connector-curvature="0" />
          <path
             id="path4853"
             style="fill:#000000;fill-opacity:1;stroke:#1a1a1a;stroke-width:1.10223496px"
             d="m 435.30712,501.99395 q -4.67417,0 -7.20148,-3.96761 -2.50013,-3.99478 -2.50013,-11.11472 0,-7.55476 2.22838,-11.52236 2.25556,-3.99478 6.46774,-3.99478 3.66867,0 5.78835,3.50562 2.11968,3.47845 2.11968,9.40268 l 0,2.39143 -13.96814,0 q 0.0543,6.44057 1.82075,9.64726 1.7664,3.20669 5.35355,3.20669 2.77189,0 5.8427,-1.82075 l 0,2.50014 q -2.82623,1.7664 -5.9514,1.7664 z m -1.16854,-28.26239 q -5.32638,0 -5.84271,10.62557 l 11.33213,0 q 0,-4.86439 -1.49464,-7.74498 -1.46747,-2.88059 -3.99478,-2.88059 z"
             inkscape:connector-curvature="0" />
          <path
             id="path4855"
             style="fill:#000000;fill-opacity:1;stroke:#1a1a1a;stroke-width:1.10223496px"
             d="m 460.36281,494.05874 q 0,3.72302 -1.95663,5.8427 -1.95662,2.09251 -5.65247,2.09251 -2.01098,0 -3.5328,-0.51634 -1.52182,-0.51633 -2.36426,-1.14136 l 0,-3.01647 q 1.00549,1.00549 2.66319,1.63053 1.65769,0.59785 3.39692,0.59785 2.28273,0 3.58715,-1.49464 1.30442,-1.49465 1.30442,-3.99478 0,-1.95663 -0.95114,-3.28822 -0.92397,-1.35877 -3.55998,-3.07082 -3.01646,-1.90228 -4.13065,-3.04364 -1.08702,-1.14137 -1.71205,-2.55449 -0.59786,-1.41312 -0.59786,-3.36974 0,-3.17952 2.14685,-5.24485 2.14686,-2.0925 5.46225,-2.0925 3.55998,0 5.95141,1.68487 l -1.33159,2.25556 q -2.22838,-1.49465 -4.72852,-1.49465 -2.28273,0 -3.6415,1.35877 -1.35877,1.33159 -1.35877,3.5328 0,1.95662 0.92397,3.28822 0.92396,1.30442 3.91325,3.17952 2.93494,1.92945 4.02196,3.09799 1.08701,1.14136 1.60334,2.55448 0.54351,1.38595 0.54351,3.2067 z"
             inkscape:connector-curvature="0" />
        </g>
      </g>
      <g
         id="g4857"
         transform="matrix(1.5899781,0,0,1.5899781,332.48911,375.00521)"
         style="fill:#000000;fill-opacity:1">
        <g
           id="g4859"
           style="fill:#000000;fill-opacity:1">
          <g
             id="g4861"
             style="fill:#000000;fill-opacity:1">
            <g
               id="g4863"
               style="fill:#000000;fill-opacity:1">
              <path
                 id="path4865"
                 d="M 17.026,32.161 4.248,10.953 C 1.567,14.917 0,19.691 0,24.827 c 0,2.552 0.388,5.016 1.107,7.334 l 15.919,0 z"
                 inkscape:connector-curvature="0"
                 style="fill:#000000;fill-opacity:1" />
              <path
                 id="path4867"
                 d="m 22.395,14.3 24.908,0 C 44.104,7.497 37.907,2.375 30.422,0.645 L 22.395,14.3 Z"
                 inkscape:connector-curvature="0"
                 style="fill:#000000;fill-opacity:1" />
              <path
                 id="path4869"
                 d="M 14.399,21.986 27.25,0.121 C 26.452,0.042 25.645,0 24.826,0 17.424,0 10.773,3.26 6.221,8.416 l 8.178,13.57 z"
                 inkscape:connector-curvature="0"
                 style="fill:#000000;fill-opacity:1" />
              <path
                 id="path4871"
                 d="m 19.576,48.872 7.86,-13.711 -25.174,0 c 3.302,7.182 9.929,12.522 17.9,14.047 l -0.586,-0.336 z"
                 inkscape:connector-curvature="0"
                 style="fill:#000000;fill-opacity:1" />
              <path
                 id="path4873"
                 d="m 32.588,17.3 12.549,21.776 c 2.843,-4.037 4.518,-8.95 4.518,-14.25 0,-2.623 -0.412,-5.151 -1.17,-7.526 l -15.897,0 z"
                 inkscape:connector-curvature="0"
                 style="fill:#000000;fill-opacity:1" />
              <path
                 id="path4875"
                 d="M 35.146,27.75 22.645,49.551 c 0.719,0.063 1.446,0.103 2.181,0.103 7.233,0 13.753,-3.111 18.295,-8.064 L 35.146,27.75 Z"
                 inkscape:connector-curvature="0"
                 style="fill:#000000;fill-opacity:1" />
            </g>
          </g>
        </g>
        <g
           id="g4877"
           style="fill:#000000;fill-opacity:1" />
        <g
           id="g4879"
           style="fill:#000000;fill-opacity:1" />
        <g
           id="g4881"
           style="fill:#000000;fill-opacity:1" />
        <g
           id="g4883"
           style="fill:#000000;fill-opacity:1" />
        <g
           id="g4885"
           style="fill:#000000;fill-opacity:1" />
        <g
           id="g4887"
           style="fill:#000000;fill-opacity:1" />
        <g
           id="g4889"
           style="fill:#000000;fill-opacity:1" />
        <g
           id="g4891"
           style="fill:#000000;fill-opacity:1" />
        <g
           id="g4893"
           style="fill:#000000;fill-opacity:1" />
        <g
           id="g4895"
           style="fill:#000000;fill-opacity:1" />
        <g
           id="g4897"
           style="fill:#000000;fill-opacity:1" />
        <g
           id="g4899"
           style="fill:#000000;fill-opacity:1" />
        <g
           id="g4901"
           style="fill:#000000;fill-opacity:1" />
        <g
           id="g4903"
           style="fill:#000000;fill-opacity:1" />
        <g
           id="g4905"
           style="fill:#000000;fill-opacity:1" />
      </g>
      <g
         id="g4907"
         style="fill:#000000;fill-opacity:1">
        <path
           d="m 156.77911,452.29047 0,-103.25275 20.88001,0 0,42.33362 14.97164,0 0,-42.33362 20.99473,0 0,103.25275 -20.99473,0 0,-46.0622 -14.97164,0 0,46.0622 -20.88001,0 z"
           style="font-style:normal;font-variant:normal;font-weight:bold;font-stretch:normal;font-size:medium;line-height:125%;font-family:Oswald;-inkscape-font-specification:'Oswald, Bold';text-align:start;letter-spacing:0px;word-spacing:0px;writing-mode:lr-tb;text-anchor:start;fill:#000000;fill-opacity:1;stroke:none;stroke-width:1px;stroke-linecap:butt;stroke-linejoin:miter;stroke-opacity:1"
           id="path4909"
           inkscape:connector-curvature="0" />
        <path
           d="m 243.51142,406.34299 7.51451,0 0,-10.32527 q 0,-5.6789 -3.8433,-5.6789 -3.67121,0 -3.67121,5.6789 l 0,10.32527 z m -19.33121,26.50154 0,-31.83626 q 0,-11.93143 5.6789,-18.5855 5.6789,-6.71143 17.32352,-6.71143 11.70198,0 17.32352,6.65407 5.6789,6.65407 5.6789,18.64286 l 0,15.48791 -26.67363,0 0,16.5778 q 0,6.30989 3.67121,6.30989 4.01538,0 4.01538,-6.76879 l 0,-8.20286 18.98704,0 0,8.43231 q 0,9.35011 -6.76879,15.25846 -6.7688,5.85099 -16.23363,5.85099 -9.46484,0 -16.23363,-5.90835 -6.76879,-5.90835 -6.76879,-15.2011 z"
           style="font-style:normal;font-variant:normal;font-weight:bold;font-stretch:normal;font-size:medium;line-height:125%;font-family:Oswald;-inkscape-font-specification:'Oswald, Bold';text-align:start;letter-spacing:0px;word-spacing:0px;writing-mode:lr-tb;text-anchor:start;fill:#000000;fill-opacity:1;stroke:none;stroke-width:1px;stroke-linecap:butt;stroke-linejoin:miter;stroke-opacity:1"
           id="path4911"
           inkscape:connector-curvature="0" />
        <path
           d="m 279.13361,452.29047 0,-103.25275 19.33121,0 0,103.25275 -19.33121,0 z"
           style="font-style:normal;font-variant:normal;font-weight:bold;font-stretch:normal;font-size:medium;line-height:125%;font-family:Oswald;-inkscape-font-specification:'Oswald, Bold';text-align:start;letter-spacing:0px;word-spacing:0px;writing-mode:lr-tb;text-anchor:start;fill:#000000;fill-opacity:1;stroke:none;stroke-width:1px;stroke-linecap:butt;stroke-linejoin:miter;stroke-opacity:1"
           id="path4913"
           inkscape:connector-curvature="0" />
        <path
           d="m 309.42109,370.89288 0,-18.06923 19.33121,0 0,18.06923 -19.33121,0 z m 0,81.39759 0,-74.85825 19.33121,0 0,74.85825 -19.33121,0 z"
           style="font-style:normal;font-variant:normal;font-weight:bold;font-stretch:normal;font-size:medium;line-height:125%;font-family:Oswald;-inkscape-font-specification:'Oswald, Bold';text-align:start;letter-spacing:0px;word-spacing:0px;writing-mode:lr-tb;text-anchor:start;fill:#000000;fill-opacity:1;stroke:none;stroke-width:1px;stroke-linecap:butt;stroke-linejoin:miter;stroke-opacity:1"
           id="path4915"
           inkscape:connector-curvature="0" />
      </g>
      <path
         inkscape:connector-curvature="0"
         id="path4917"
         style="font-style:normal;font-variant:normal;font-weight:bold;font-stretch:normal;font-size:medium;line-height:125%;font-family:Oswald;-inkscape-font-specification:'Oswald, Bold';text-align:start;letter-spacing:0px;word-spacing:0px;writing-mode:lr-tb;text-anchor:start;fill:#000000;fill-opacity:1;stroke:none;stroke-width:1px;stroke-linecap:butt;stroke-linejoin:miter;stroke-opacity:1"
         d="m 416.88677,434.22124 14.79956,-5.27737 q 0.57362,1.72088 0.9178,2.69605 0.34418,0.9178 1.14725,2.7534 0.86044,1.77824 1.60616,2.75341 0.80307,0.97516 2.00769,1.8356 1.26198,0.80308 2.63868,0.80308 3.61385,0 3.61385,-4.24483 0,-1.5488 -0.74572,-3.15495 -0.68835,-1.66352 -1.49143,-2.81077 -0.74571,-1.20461 -2.69604,-3.09758 -1.89297,-1.89297 -2.92549,-2.81077 -1.03253,-0.9178 -3.61385,-3.09758 l -3.15495,-2.69605 q -6.1378,-5.33472 -9.63692,-10.49736 -3.49912,-5.16264 -3.49912,-11.47253 0,-4.87582 2.00769,-8.77648 2.06506,-3.95802 5.50682,-6.36725 3.44175,-2.40923 7.68659,-3.67121 4.3022,-1.31934 9.00593,-1.31934 4.18748,0 8.03077,1.77824 3.8433,1.77824 6.71143,4.7611 2.9255,2.92549 5.04791,6.65406 2.12242,3.67121 3.26967,7.74396 l -13.88175,4.7611 q -0.68836,-1.72088 -1.14726,-2.81077 -0.4589,-1.14725 -1.49143,-2.9255 -0.97516,-1.8356 -1.95033,-2.92549 -0.9178,-1.08989 -2.2945,-1.89297 -1.3767,-0.86044 -2.86813,-0.86044 -2.0077,0 -3.15495,1.43407 -1.08989,1.43407 -1.08989,3.26967 0,2.52396 2.75341,5.6789 2.81077,3.09758 7.68659,7.17033 l 3.55649,3.15495 q 2.86813,2.58131 4.93318,4.87582 2.12242,2.23714 4.18748,5.10528 2.12241,2.86813 3.2123,6.02307 1.14726,3.15495 1.14726,6.30989 0,9.0633 -6.42462,14.97165 -6.36725,5.90835 -15.43055,5.90835 -8.77648,0 -15.14374,-5.44945 -6.36725,-5.44945 -8.83384,-14.28329 z" />
    </g>
    <g
       id="g4726">
      <g
         transform="translate(301.9727,272.06201)"
         id="g3349" />
      <g
         transform="translate(301.9727,272.06201)"
         id="g3351" />
      <g
         transform="translate(301.9727,272.06201)"
         id="g3353" />
      <g
         transform="translate(301.9727,272.06201)"
         id="g3355" />
      <g
         transform="translate(301.9727,272.06201)"
         id="g3357" />
      <g
         transform="translate(301.9727,272.06201)"
         id="g3359" />
      <g
         transform="translate(301.9727,272.06201)"
         id="g3361" />
      <g
         transform="translate(301.9727,272.06201)"
         id="g3363" />
      <g
         transform="translate(301.9727,272.06201)"
         id="g3365" />
      <g
         transform="translate(301.9727,272.06201)"
         id="g3367" />
      <g
         transform="translate(301.9727,272.06201)"
         id="g3369" />
      <g
         transform="translate(301.9727,272.06201)"
         id="g3371" />
      <g
         transform="translate(301.9727,272.06201)"
         id="g3373" />
      <g
         transform="translate(301.9727,272.06201)"
         id="g3375" />
      <g
         transform="translate(301.9727,272.06201)"
         id="g3377" />
      <g
         id="g4497">
        <g
           style="font-style:normal;font-variant:normal;font-weight:300;font-stretch:condensed;font-size:55.65516281px;line-height:125%;font-family:'Open Sans';-inkscape-font-specification:'Open Sans, Light Condensed';text-align:start;letter-spacing:0px;word-spacing:0px;writing-mode:lr-tb;text-anchor:start;fill:#4d4d4d;fill-opacity:1;stroke:#4d4d4d;stroke-width:1.10223496px;stroke-linecap:butt;stroke-linejoin:miter;stroke-opacity:1"
           id="text3340">
          <path
             d="m 176.29864,461.72004 2.74471,0 -9.40268,39.7304 -2.96211,0 -9.34833,-39.7304 2.77189,0 6.46774,27.93629 q 0.76091,3.20669 1.00549,4.72851 0.24457,1.49465 0.48915,3.77738 0.21741,-1.57617 0.46198,-3.09799 0.24458,-1.52182 0.46199,-2.55449 0.24457,-1.05984 7.31017,-30.7897 z"
             style="fill:#4d4d4d;stroke:#4d4d4d;stroke-width:1.10223496px"
             id="path4216"
             inkscape:connector-curvature="0" />
          <path
             d="m 185.59262,501.45044 -2.58166,0 0,-29.48528 2.58166,0 0,29.48528 z m -2.96212,-37.66507 q 0,-1.22289 0.48916,-1.90227 0.51633,-0.67939 1.30442,-0.67939 0.73373,0 1.16854,0.67939 0.4348,0.67938 0.4348,1.90227 0,1.16854 -0.4348,1.8751 -0.43481,0.67939 -1.16854,0.67939 -0.78809,0 -1.30442,-0.67939 -0.48916,-0.70656 -0.48916,-1.8751 z"
             style="fill:#4d4d4d;stroke:#4d4d4d;stroke-width:1.10223496px"
             id="path4218"
             inkscape:connector-curvature="0" />
          <path
             d="m 200.64777,501.99395 q -8.58741,0 -8.58741,-15.24539 0,-7.5004 2.14685,-11.41365 2.14685,-3.94043 6.33186,-3.94043 1.9838,0 3.7502,1.14136 1.79358,1.14137 2.85342,3.15235 l 0.2174,0 -0.1087,-3.28822 0,-13.23441 2.58166,0 0,42.28488 -2.11968,0 -0.2174,-4.13066 -0.24458,0 q -1.05984,2.25556 -2.74471,3.47845 -1.68488,1.19572 -3.85891,1.19572 z m 0.16306,-2.25556 q 3.09799,0 4.75569,-2.85341 1.68487,-2.88059 1.68487,-8.45154 l 0,-1.68488 q 0,-6.68514 -1.63052,-9.78313 -1.60335,-3.12517 -4.91875,-3.12517 -3.17951,0 -4.56546,3.34257 -1.38594,3.3154 -1.38594,9.62008 0,6.35904 1.44029,9.64726 1.4403,3.28822 4.61982,3.28822 z"
             style="fill:#4d4d4d;stroke:#4d4d4d;stroke-width:1.10223496px"
             id="path4220"
             inkscape:connector-curvature="0" />
          <path
             d="m 226.05675,501.99395 q -4.67417,0 -7.20148,-3.96761 -2.50013,-3.99478 -2.50013,-11.11472 0,-7.55476 2.22838,-11.52236 2.25556,-3.99478 6.46774,-3.99478 3.66867,0 5.78835,3.50562 2.11968,3.47845 2.11968,9.40268 l 0,2.39143 -13.96814,0 q 0.0543,6.44057 1.82075,9.64726 1.7664,3.20669 5.35355,3.20669 2.77189,0 5.8427,-1.82075 l 0,2.50014 q -2.82623,1.7664 -5.9514,1.7664 z m -1.16854,-28.26239 q -5.32638,0 -5.84271,10.62557 l 11.33213,0 q 0,-4.86439 -1.49464,-7.74498 -1.46747,-2.88059 -3.99478,-2.88059 z"
             style="fill:#4d4d4d;stroke:#4d4d4d;stroke-width:1.10223496px"
             id="path4222"
             inkscape:connector-curvature="0" />
          <path
             d="m 256.13989,486.63986 q 0,7.44605 -2.36426,11.41366 -2.33708,3.94043 -6.71232,3.94043 -4.32088,0 -6.63079,-3.94043 -2.28273,-3.96761 -2.28273,-11.41366 0,-15.24538 9.02223,-15.24538 4.23935,0 6.60361,3.99478 2.36426,3.99478 2.36426,11.2506 z m -15.29974,0 q 0,6.38621 1.52182,9.64726 1.52182,3.26104 4.75569,3.26104 6.33187,0 6.33187,-12.9083 0,-12.7996 -6.33187,-12.7996 -3.31539,0 -4.81004,3.20669 -1.46747,3.2067 -1.46747,9.59291 z"
             style="fill:#4d4d4d;stroke:#4d4d4d;stroke-width:1.10223496px"
             id="path4224"
             inkscape:connector-curvature="0" />
          <path
             d="m 288.77751,491.04227 q 0,4.89157 -2.71754,7.93521 -2.71753,3.01647 -6.90254,3.01647 -4.75569,0 -7.63628,-1.38595 l 0,-2.88059 q 1.41312,0.78809 3.50562,1.25007 2.09251,0.46198 4.13066,0.46198 3.04364,0 5.00027,-2.3099 1.95662,-2.30991 1.95662,-5.86989 0,-3.28822 -1.38594,-5.21767 -1.38594,-1.92945 -5.2992,-3.8589 -3.07081,-1.549 -4.59264,-2.98929 -1.52182,-1.46747 -2.25555,-3.39692 -0.73374,-1.92945 -0.73374,-4.61982 0,-2.93494 1.19572,-5.21767 1.19572,-2.28273 3.34257,-3.5328 2.14685,-1.27724 4.70134,-1.27724 2.30991,0 4.18501,0.51633 1.90227,0.51634 2.98929,1.11419 l -1.03267,2.55449 q -3.01646,-1.549 -6.14163,-1.549 -2.93494,0 -4.78287,2.01098 -1.82075,1.9838 -1.82075,5.27202 0,3.34257 1.3316,5.1905 1.33159,1.84792 5.21767,3.83173 4.02195,1.95662 5.86988,4.59263 1.8751,2.60884 1.8751,6.35904 z"
             style="fill:#4d4d4d;stroke:#4d4d4d;stroke-width:1.10223496px"
             id="path4226"
             inkscape:connector-curvature="0" />
          <path
             d="m 311.68635,486.63986 q 0,7.44605 -2.36426,11.41366 -2.33708,3.94043 -6.71231,3.94043 -4.32089,0 -6.63079,-3.94043 -2.28274,-3.96761 -2.28274,-11.41366 0,-15.24538 9.02223,-15.24538 4.23936,0 6.60361,3.99478 2.36426,3.99478 2.36426,11.2506 z m -15.29973,0 q 0,6.38621 1.52182,9.64726 1.52182,3.26104 4.75569,3.26104 6.33186,0 6.33186,-12.9083 0,-12.7996 -6.33186,-12.7996 -3.3154,0 -4.81004,3.20669 -1.46747,3.2067 -1.46747,9.59291 z"
             style="fill:#4d4d4d;stroke:#4d4d4d;stroke-width:1.10223496px"
             id="path4228"
             inkscape:connector-curvature="0" />
          <path
             d="m 320.81727,501.45044 -2.58166,0 0,-42.28488 2.58166,0 0,42.28488 z"
             style="fill:#4d4d4d;stroke:#4d4d4d;stroke-width:1.10223496px"
             id="path4230"
             inkscape:connector-curvature="0" />
          <path
             d="m 331.14392,471.96516 0,19.24016 q 0,4.37524 1.03266,6.38622 1.05984,2.01097 3.23387,2.01097 3.34257,0 4.89157,-2.69036 1.57617,-2.71753 1.57617,-8.75047 l 0,-16.19652 2.55448,0 0,29.48528 -2.17402,0 -0.32611,-4.13066 -0.2174,0 q -0.95114,2.25556 -2.63601,3.47845 -1.68488,1.19572 -3.66868,1.19572 -3.55997,0 -5.21767,-2.52731 -1.63052,-2.52731 -1.63052,-8.26132 l 0,-19.24016 2.58166,0 z"
             style="fill:#4d4d4d;stroke:#4d4d4d;stroke-width:1.10223496px"
             id="path4232"
             inkscape:connector-curvature="0" />
          <path
             d="m 359.9498,501.99395 q -4.42958,0 -6.68514,-3.83173 -2.22838,-3.8589 -2.22838,-11.30496 0,-7.55475 2.25556,-11.49518 2.28273,-3.9676 6.71231,-3.9676 2.74472,0 4.56547,1.00549 l -1.00549,2.28273 q -1.82075,-0.84244 -3.34257,-0.84244 -6.49492,0 -6.49492,12.96265 0,12.85395 6.49492,12.85395 1.92945,0 4.185,-0.86961 l 0,2.17403 q -0.89678,0.48916 -2.2012,0.76091 -1.30442,0.27176 -2.25556,0.27176 z"
             style="fill:#4d4d4d;stroke:#4d4d4d;stroke-width:1.10223496px"
             id="path4234"
             inkscape:connector-curvature="0" />
          <path
             d="m 372.23307,501.45044 -2.58166,0 0,-29.48528 2.58166,0 0,29.48528 z m -2.96211,-37.66507 q 0,-1.22289 0.48915,-1.90227 0.51634,-0.67939 1.30442,-0.67939 0.73374,0 1.16854,0.67939 0.43481,0.67938 0.43481,1.90227 0,1.16854 -0.43481,1.8751 -0.4348,0.67939 -1.16854,0.67939 -0.78808,0 -1.30442,-0.67939 -0.48915,-0.70656 -0.48915,-1.8751 z"
             style="fill:#4d4d4d;stroke:#4d4d4d;stroke-width:1.10223496px"
             id="path4236"
             inkscape:connector-curvature="0" />
          <path
             d="m 396.69091,486.63986 q 0,7.44605 -2.36425,11.41366 -2.33709,3.94043 -6.71232,3.94043 -4.32089,0 -6.63079,-3.94043 -2.28273,-3.96761 -2.28273,-11.41366 0,-15.24538 9.02222,-15.24538 4.23936,0 6.60362,3.99478 2.36425,3.99478 2.36425,11.2506 z m -15.29973,0 q 0,6.38621 1.52182,9.64726 1.52182,3.26104 4.75569,3.26104 6.33186,0 6.33186,-12.9083 0,-12.7996 -6.33186,-12.7996 -3.3154,0 -4.81004,3.20669 -1.46747,3.2067 -1.46747,9.59291 z"
             style="fill:#4d4d4d;stroke:#4d4d4d;stroke-width:1.10223496px"
             id="path4238"
             inkscape:connector-curvature="0" />
          <path
             d="m 416.55611,501.45044 0,-20.32718 q 0,-7.33735 -4.34806,-7.33735 -3.3154,0 -4.8644,2.74471 -1.52182,2.74472 -1.52182,8.7233 l 0,16.19652 -2.58166,0 0,-29.48528 2.17403,0 0.21741,4.10348 0.24457,0 q 0.92397,-2.22838 2.66319,-3.45127 1.73922,-1.22289 3.72303,-1.22289 3.42409,0 5.13614,2.3099 1.71205,2.28274 1.71205,7.36453 l 0,20.38153 -2.55448,0 z"
             style="fill:#4d4d4d;stroke:#4d4d4d;stroke-width:1.10223496px"
             id="path4240"
             inkscape:connector-curvature="0" />
          <path
             d="m 435.30712,501.99395 q -4.67417,0 -7.20148,-3.96761 -2.50013,-3.99478 -2.50013,-11.11472 0,-7.55476 2.22838,-11.52236 2.25556,-3.99478 6.46774,-3.99478 3.66867,0 5.78835,3.50562 2.11968,3.47845 2.11968,9.40268 l 0,2.39143 -13.96814,0 q 0.0543,6.44057 1.82075,9.64726 1.7664,3.20669 5.35355,3.20669 2.77189,0 5.8427,-1.82075 l 0,2.50014 q -2.82623,1.7664 -5.9514,1.7664 z m -1.16854,-28.26239 q -5.32638,0 -5.84271,10.62557 l 11.33213,0 q 0,-4.86439 -1.49464,-7.74498 -1.46747,-2.88059 -3.99478,-2.88059 z"
             style="fill:#4d4d4d;stroke:#4d4d4d;stroke-width:1.10223496px"
             id="path4242"
             inkscape:connector-curvature="0" />
          <path
             d="m 460.36281,494.05874 q 0,3.72302 -1.95663,5.8427 -1.95662,2.09251 -5.65247,2.09251 -2.01098,0 -3.5328,-0.51634 -1.52182,-0.51633 -2.36426,-1.14136 l 0,-3.01647 q 1.00549,1.00549 2.66319,1.63053 1.65769,0.59785 3.39692,0.59785 2.28273,0 3.58715,-1.49464 1.30442,-1.49465 1.30442,-3.99478 0,-1.95663 -0.95114,-3.28822 -0.92397,-1.35877 -3.55998,-3.07082 -3.01646,-1.90228 -4.13065,-3.04364 -1.08702,-1.14137 -1.71205,-2.55449 -0.59786,-1.41312 -0.59786,-3.36974 0,-3.17952 2.14685,-5.24485 2.14686,-2.0925 5.46225,-2.0925 3.55998,0 5.95141,1.68487 l -1.33159,2.25556 q -2.22838,-1.49465 -4.72852,-1.49465 -2.28273,0 -3.6415,1.35877 -1.35877,1.33159 -1.35877,3.5328 0,1.95662 0.92397,3.28822 0.92396,1.30442 3.91325,3.17952 2.93494,1.92945 4.02196,3.09799 1.08701,1.14136 1.60334,2.55448 0.54351,1.38595 0.54351,3.2067 z"
             style="fill:#4d4d4d;stroke:#4d4d4d;stroke-width:1.10223496px"
             id="path4244"
             inkscape:connector-curvature="0" />
        </g>
      </g>
      <g
         style="fill:#52b6ec;fill-opacity:1"
         transform="matrix(1.5899781,0,0,1.5899781,332.48911,375.00521)"
         id="g3459">
        <g
           style="fill:#52b6ec;fill-opacity:1"
           id="g3405">
          <g
             style="fill:#52b6ec;fill-opacity:1"
             id="g3407">
            <g
               style="fill:#52b6ec;fill-opacity:1"
               id="g3409">
              <path
                 style="fill:#52b6ec;fill-opacity:1"
                 inkscape:connector-curvature="0"
                 d="M 17.026,32.161 4.248,10.953 C 1.567,14.917 0,19.691 0,24.827 c 0,2.552 0.388,5.016 1.107,7.334 l 15.919,0 z"
                 id="path3411" />
              <path
                 style="fill:#52b6ec;fill-opacity:1"
                 inkscape:connector-curvature="0"
                 d="m 22.395,14.3 24.908,0 C 44.104,7.497 37.907,2.375 30.422,0.645 L 22.395,14.3 Z"
                 id="path3413" />
              <path
                 style="fill:#52b6ec;fill-opacity:1"
                 inkscape:connector-curvature="0"
                 d="M 14.399,21.986 27.25,0.121 C 26.452,0.042 25.645,0 24.826,0 17.424,0 10.773,3.26 6.221,8.416 l 8.178,13.57 z"
                 id="path3415" />
              <path
                 style="fill:#52b6ec;fill-opacity:1"
                 inkscape:connector-curvature="0"
                 d="m 19.576,48.872 7.86,-13.711 -25.174,0 c 3.302,7.182 9.929,12.522 17.9,14.047 l -0.586,-0.336 z"
                 id="path3417" />
              <path
                 style="fill:#52b6ec;fill-opacity:1"
                 inkscape:connector-curvature="0"
                 d="m 32.588,17.3 12.549,21.776 c 2.843,-4.037 4.518,-8.95 4.518,-14.25 0,-2.623 -0.412,-5.151 -1.17,-7.526 l -15.897,0 z"
                 id="path3419" />
              <path
                 style="fill:#52b6ec;fill-opacity:1"
                 inkscape:connector-curvature="0"
                 d="M 35.146,27.75 22.645,49.551 c 0.719,0.063 1.446,0.103 2.181,0.103 7.233,0 13.753,-3.111 18.295,-8.064 L 35.146,27.75 Z"
                 id="path3421" />
            </g>
          </g>
        </g>
        <g
           style="fill:#52b6ec;fill-opacity:1"
           id="g3423" />
        <g
           style="fill:#52b6ec;fill-opacity:1"
           id="g3425" />
        <g
           style="fill:#52b6ec;fill-opacity:1"
           id="g3427" />
        <g
           style="fill:#52b6ec;fill-opacity:1"
           id="g3429" />
        <g
           style="fill:#52b6ec;fill-opacity:1"
           id="g3431" />
        <g
           style="fill:#52b6ec;fill-opacity:1"
           id="g3433" />
        <g
           style="fill:#52b6ec;fill-opacity:1"
           id="g3435" />
        <g
           style="fill:#52b6ec;fill-opacity:1"
           id="g3437" />
        <g
           style="fill:#52b6ec;fill-opacity:1"
           id="g3439" />
        <g
           style="fill:#52b6ec;fill-opacity:1"
           id="g3441" />
        <g
           style="fill:#52b6ec;fill-opacity:1"
           id="g3443" />
        <g
           style="fill:#52b6ec;fill-opacity:1"
           id="g3445" />
        <g
           style="fill:#52b6ec;fill-opacity:1"
           id="g3447" />
        <g
           style="fill:#52b6ec;fill-opacity:1"
           id="g3449" />
        <g
           style="fill:#52b6ec;fill-opacity:1"
           id="g3451" />
      </g>
      <g
         id="g4322">
        <path
           inkscape:connector-curvature="0"
           id="path4304"
           style="font-style:normal;font-variant:normal;font-weight:bold;font-stretch:normal;font-size:medium;line-height:125%;font-family:Oswald;-inkscape-font-specification:'Oswald, Bold';text-align:start;letter-spacing:0px;word-spacing:0px;writing-mode:lr-tb;text-anchor:start;fill:#000000;fill-opacity:1;stroke:none;stroke-width:1px;stroke-linecap:butt;stroke-linejoin:miter;stroke-opacity:1"
           d="m 156.77911,452.29047 0,-103.25275 20.88001,0 0,42.33362 14.97164,0 0,-42.33362 20.99473,0 0,103.25275 -20.99473,0 0,-46.0622 -14.97164,0 0,46.0622 -20.88001,0 z" />
        <path
           inkscape:connector-curvature="0"
           id="path4306"
           style="font-style:normal;font-variant:normal;font-weight:bold;font-stretch:normal;font-size:medium;line-height:125%;font-family:Oswald;-inkscape-font-specification:'Oswald, Bold';text-align:start;letter-spacing:0px;word-spacing:0px;writing-mode:lr-tb;text-anchor:start;fill:#000000;fill-opacity:1;stroke:none;stroke-width:1px;stroke-linecap:butt;stroke-linejoin:miter;stroke-opacity:1"
           d="m 243.51142,406.34299 7.51451,0 0,-10.32527 q 0,-5.6789 -3.8433,-5.6789 -3.67121,0 -3.67121,5.6789 l 0,10.32527 z m -19.33121,26.50154 0,-31.83626 q 0,-11.93143 5.6789,-18.5855 5.6789,-6.71143 17.32352,-6.71143 11.70198,0 17.32352,6.65407 5.6789,6.65407 5.6789,18.64286 l 0,15.48791 -26.67363,0 0,16.5778 q 0,6.30989 3.67121,6.30989 4.01538,0 4.01538,-6.76879 l 0,-8.20286 18.98704,0 0,8.43231 q 0,9.35011 -6.76879,15.25846 -6.7688,5.85099 -16.23363,5.85099 -9.46484,0 -16.23363,-5.90835 -6.76879,-5.90835 -6.76879,-15.2011 z" />
        <path
           inkscape:connector-curvature="0"
           id="path4308"
           style="font-style:normal;font-variant:normal;font-weight:bold;font-stretch:normal;font-size:medium;line-height:125%;font-family:Oswald;-inkscape-font-specification:'Oswald, Bold';text-align:start;letter-spacing:0px;word-spacing:0px;writing-mode:lr-tb;text-anchor:start;fill:#000000;fill-opacity:1;stroke:none;stroke-width:1px;stroke-linecap:butt;stroke-linejoin:miter;stroke-opacity:1"
           d="m 279.13361,452.29047 0,-103.25275 19.33121,0 0,103.25275 -19.33121,0 z" />
        <path
           inkscape:connector-curvature="0"
           id="path4310"
           style="font-style:normal;font-variant:normal;font-weight:bold;font-stretch:normal;font-size:medium;line-height:125%;font-family:Oswald;-inkscape-font-specification:'Oswald, Bold';text-align:start;letter-spacing:0px;word-spacing:0px;writing-mode:lr-tb;text-anchor:start;fill:#000000;fill-opacity:1;stroke:none;stroke-width:1px;stroke-linecap:butt;stroke-linejoin:miter;stroke-opacity:1"
           d="m 309.42109,370.89288 0,-18.06923 19.33121,0 0,18.06923 -19.33121,0 z m 0,81.39759 0,-74.85825 19.33121,0 0,74.85825 -19.33121,0 z" />
      </g>
      <path
         d="m 416.88677,434.22124 14.79956,-5.27737 q 0.57362,1.72088 0.9178,2.69605 0.34418,0.9178 1.14725,2.7534 0.86044,1.77824 1.60616,2.75341 0.80307,0.97516 2.00769,1.8356 1.26198,0.80308 2.63868,0.80308 3.61385,0 3.61385,-4.24483 0,-1.5488 -0.74572,-3.15495 -0.68835,-1.66352 -1.49143,-2.81077 -0.74571,-1.20461 -2.69604,-3.09758 -1.89297,-1.89297 -2.92549,-2.81077 -1.03253,-0.9178 -3.61385,-3.09758 l -3.15495,-2.69605 q -6.1378,-5.33472 -9.63692,-10.49736 -3.49912,-5.16264 -3.49912,-11.47253 0,-4.87582 2.00769,-8.77648 2.06506,-3.95802 5.50682,-6.36725 3.44175,-2.40923 7.68659,-3.67121 4.3022,-1.31934 9.00593,-1.31934 4.18748,0 8.03077,1.77824 3.8433,1.77824 6.71143,4.7611 2.9255,2.92549 5.04791,6.65406 2.12242,3.67121 3.26967,7.74396 l -13.88175,4.7611 q -0.68836,-1.72088 -1.14726,-2.81077 -0.4589,-1.14725 -1.49143,-2.9255 -0.97516,-1.8356 -1.95033,-2.92549 -0.9178,-1.08989 -2.2945,-1.89297 -1.3767,-0.86044 -2.86813,-0.86044 -2.0077,0 -3.15495,1.43407 -1.08989,1.43407 -1.08989,3.26967 0,2.52396 2.75341,5.6789 2.81077,3.09758 7.68659,7.17033 l 3.55649,3.15495 q 2.86813,2.58131 4.93318,4.87582 2.12242,2.23714 4.18748,5.10528 2.12241,2.86813 3.2123,6.02307 1.14726,3.15495 1.14726,6.30989 0,9.0633 -6.42462,14.97165 -6.36725,5.90835 -15.43055,5.90835 -8.77648,0 -15.14374,-5.44945 -6.36725,-5.44945 -8.83384,-14.28329 z"
         style="font-style:normal;font-variant:normal;font-weight:bold;font-stretch:normal;font-size:medium;line-height:125%;font-family:Oswald;-inkscape-font-specification:'Oswald, Bold';text-align:start;letter-spacing:0px;word-spacing:0px;writing-mode:lr-tb;text-anchor:start;fill:#000000;fill-opacity:1;stroke:none;stroke-width:1px;stroke-linecap:butt;stroke-linejoin:miter;stroke-opacity:1"
         id="path4314"
         inkscape:connector-curvature="0" />
    </g>
    <g
       transform="translate(301.9727,272.06201)"
       id="g4793" />
    <g
       transform="translate(301.9727,272.06201)"
       id="g4795" />
    <g
       transform="translate(301.9727,272.06201)"
       id="g4797" />
    <g
       transform="translate(301.9727,272.06201)"
       id="g4799" />
    <g
       transform="translate(301.9727,272.06201)"
       id="g4801" />
    <g
       transform="translate(301.9727,272.06201)"
       id="g4803" />
    <g
       transform="translate(301.9727,272.06201)"
       id="g4805" />
    <g
       transform="translate(301.9727,272.06201)"
       id="g4807" />
    <g
       transform="translate(301.9727,272.06201)"
       id="g4809" />
    <g
       transform="translate(301.9727,272.06201)"
       id="g4811" />
    <g
       transform="translate(301.9727,272.06201)"
       id="g4813" />
    <g
       transform="translate(301.9727,272.06201)"
       id="g4815" />
    <g
       transform="translate(301.9727,272.06201)"
       id="g4817" />
    <g
       transform="translate(301.9727,272.06201)"
       id="g4819" />
    <g
       transform="translate(301.9727,272.06201)"
       id="g4821" />
  </g>
</svg>
